Coordinates
version=1
nRows=46
nColumns=15
inDegrees=yes

Units are S.I. units (second, meters, Newtons, ...)
Angles are in degrees.

endheader
time	sacrum_pitch	sacrum_roll	sacrum_yaw	sacrum_x	sacrum_y	sacrum_z	sacroiliac_flx	hip_flx	hip_add	hip_int	knee_flx	ankle_flx	ankle_add	ankle_int
2.50500000	30.00000000	0.00000000	0.00000000	0.07859734	0.06649783	0.00000000	0.00000000	-14.59014854	0.00000000	0.00000000	-101.31136148	-18.11237460	0.00000000	0.00000000
2.51000000	30.00000000	0.00000000	0.00000000	0.07824032	0.06659462	0.00000000	0.00000000	-14.67015208	0.00000000	0.00000000	-100.98685683	-18.42568387	0.00000000	0.00000000
2.51500000	30.00000000	0.00000000	0.00000000	0.07779629	0.06667187	0.00000000	0.00000000	-14.70077837	0.00000000	0.00000000	-100.87404934	-18.73800585	0.00000000	0.00000000
2.52000000	30.00000000	0.00000000	0.00000000	0.07746352	0.06680777	0.00000000	0.00000000	-14.57376167	0.00000000	0.00000000	-100.68515852	-19.27962357	0.00000000	0.00000000
2.52500000	30.00000000	0.00000000	0.00000000	0.07712540	0.06690655	0.00000000	0.00000000	-14.63352880	0.00000000	0.00000000	-100.46247464	-19.65881473	0.00000000	0.00000000
2.53000000	30.00000000	0.00000000	0.00000000	0.07675380	0.06700656	0.00000000	0.00000000	-14.81859427	0.00000000	0.00000000	-100.19931889	-20.10297242	0.00000000	0.00000000
2.53500000	30.00000000	0.00000000	0.00000000	0.07645287	0.06709830	0.00000000	0.00000000	-14.90926696	0.00000000	0.00000000	-99.86374801	-20.37922250	0.00000000	0.00000000
2.54000000	30.00000000	0.00000000	0.00000000	0.07608034	0.06720398	0.00000000	0.00000000	-15.07017544	0.00000000	0.00000000	-99.69669144	-20.74206911	0.00000000	0.00000000
2.54500000	30.00000000	0.00000000	0.00000000	0.07580276	0.06732205	0.00000000	0.00000000	-15.21040305	0.00000000	0.00000000	-99.39481229	-21.32545079	0.00000000	0.00000000
2.55000000	30.00000000	0.00000000	0.00000000	0.07549362	0.06744055	0.00000000	0.00000000	-15.49466211	0.00000000	0.00000000	-99.16180668	-21.71225044	0.00000000	0.00000000
2.55500000	30.00000000	0.00000000	0.00000000	0.07524892	0.06754102	0.00000000	0.00000000	-15.60127462	0.00000000	0.00000000	-98.96951422	-22.15172773	0.00000000	0.00000000
2.56000000	30.00000000	0.00000000	0.00000000	0.07497479	0.06759811	0.00000000	0.00000000	-15.80664145	0.00000000	0.00000000	-98.60772456	-22.73191986	0.00000000	0.00000000
2.56500000	30.00000000	0.00000000	0.00000000	0.07469356	0.06768443	0.00000000	0.00000000	-15.89723763	0.00000000	0.00000000	-98.50982023	-23.10332396	0.00000000	0.00000000
2.57000000	30.00000000	0.00000000	0.00000000	0.07449706	0.06781822	0.00000000	0.00000000	-16.13748030	0.00000000	0.00000000	-98.20119754	-23.39951689	0.00000000	0.00000000
2.57500000	30.00000000	0.00000000	0.00000000	0.07425905	0.06791521	0.00000000	0.00000000	-16.40075723	0.00000000	0.00000000	-97.76729512	-24.18090938	0.00000000	0.00000000
2.58000000	30.00000000	0.00000000	0.00000000	0.07404965	0.06804242	0.00000000	0.00000000	-16.56653218	0.00000000	0.00000000	-97.47253418	-24.61611799	0.00000000	0.00000000
2.58500000	30.00000000	0.00000000	0.00000000	0.07381548	0.06819225	0.00000000	0.00000000	-16.77969115	0.00000000	0.00000000	-97.23827319	-25.48591602	0.00000000	0.00000000
2.59000000	30.00000000	0.00000000	0.00000000	0.07361771	0.06831065	0.00000000	0.00000000	-16.92793360	0.00000000	0.00000000	-96.83876543	-25.87785166	0.00000000	0.00000000
2.59500000	30.00000000	0.00000000	0.00000000	0.07336613	0.06844453	0.00000000	0.00000000	-17.31814693	0.00000000	0.00000000	-96.46827313	-26.36572348	0.00000000	0.00000000
2.60000000	30.00000000	0.00000000	0.00000000	0.07311480	0.06859622	0.00000000	0.00000000	-17.49566926	0.00000000	0.00000000	-96.30776591	-26.90667337	0.00000000	0.00000000
2.60500000	30.00000000	0.00000000	0.00000000	0.07295582	0.06873994	0.00000000	0.00000000	-17.64330501	0.00000000	0.00000000	-95.94171467	-27.22319806	0.00000000	0.00000000
2.61000000	30.00000000	0.00000000	0.00000000	0.07271725	0.06887216	0.00000000	0.00000000	-18.15100776	0.00000000	0.00000000	-95.54559557	-28.20264404	0.00000000	0.00000000
2.61500000	30.00000000	0.00000000	0.00000000	0.07251101	0.06902787	0.00000000	0.00000000	-18.32782625	0.00000000	0.00000000	-95.34007029	-28.17866524	0.00000000	0.00000000
2.62000000	30.00000000	0.00000000	0.00000000	0.07233222	0.06919453	0.00000000	0.00000000	-18.48787414	0.00000000	0.00000000	-95.04609671	-29.25945524	0.00000000	0.00000000
2.62500000	30.00000000	0.00000000	0.00000000	0.07212494	0.06930647	0.00000000	0.00000000	-18.71948324	0.00000000	0.00000000	-94.67367321	-29.74768204	0.00000000	0.00000000
2.63000000	30.00000000	0.00000000	0.00000000	0.07193620	0.06944246	0.00000000	0.00000000	-18.61463728	0.00000000	0.00000000	-94.54040162	-30.55204279	0.00000000	0.00000000
2.63500000	30.00000000	0.00000000	0.00000000	0.07179796	0.06961861	0.00000000	0.00000000	-18.72167452	0.00000000	0.00000000	-94.29187828	-31.33507976	0.00000000	0.00000000
2.64000000	30.00000000	0.00000000	0.00000000	0.07162833	0.06972479	0.00000000	0.00000000	-18.97000214	0.00000000	0.00000000	-93.91477943	-32.42382163	0.00000000	0.00000000
2.64500000	30.00000000	0.00000000	0.00000000	0.07143218	0.06984434	0.00000000	0.00000000	-19.13925327	0.00000000	0.00000000	-93.63728911	-33.44727431	0.00000000	0.00000000
2.65000000	30.00000000	0.00000000	0.00000000	0.07128955	0.06995936	0.00000000	0.00000000	-19.04794808	0.00000000	0.00000000	-93.44282783	-34.68929532	0.00000000	0.00000000
2.65500000	30.00000000	0.00000000	0.00000000	0.07117578	0.07005702	0.00000000	0.00000000	-18.99663273	0.00000000	0.00000000	-93.28614362	-36.02169785	0.00000000	0.00000000
2.66000000	30.00000000	0.00000000	0.00000000	0.07103456	0.07013411	0.00000000	0.00000000	-19.27496153	0.00000000	0.00000000	-93.10457271	-37.24744002	0.00000000	0.00000000
2.66500000	30.00000000	0.00000000	0.00000000	0.07092986	0.07019311	0.00000000	0.00000000	-19.06749081	0.00000000	0.00000000	-93.07701303	-37.58483347	0.00000000	0.00000000
2.67000000	30.00000000	0.00000000	0.00000000	0.07084053	0.07023306	0.00000000	0.00000000	-19.11728558	0.00000000	0.00000000	-92.86766000	-38.58924375	0.00000000	0.00000000
2.67500000	30.00000000	0.00000000	0.00000000	0.07075110	0.07025906	0.00000000	0.00000000	-19.08399969	0.00000000	0.00000000	-92.68891828	-39.09815694	0.00000000	0.00000000
2.68000000	30.00000000	0.00000000	0.00000000	0.07065684	0.07027035	0.00000000	0.00000000	-18.95663755	0.00000000	0.00000000	-92.47837448	-40.16547682	0.00000000	0.00000000
2.68500000	30.00000000	0.00000000	0.00000000	0.07055791	0.07024030	0.00000000	0.00000000	-18.80762929	0.00000000	0.00000000	-92.35662552	-40.77489009	0.00000000	0.00000000
2.69000000	30.00000000	0.00000000	0.00000000	0.07044479	0.07018636	0.00000000	0.00000000	-18.79459693	0.00000000	0.00000000	-92.26315437	-41.26936965	0.00000000	0.00000000
2.69500000	30.00000000	0.00000000	0.00000000	0.07034061	0.07011568	0.00000000	0.00000000	-18.71288058	0.00000000	0.00000000	-92.06327095	-41.90102956	0.00000000	0.00000000
2.70000000	30.00000000	0.00000000	0.00000000	0.07024385	0.07004494	0.00000000	0.00000000	-18.49726752	0.00000000	0.00000000	-92.01479445	-42.45749931	0.00000000	0.00000000
2.70500000	30.00000000	0.00000000	0.00000000	0.07013574	0.06996109	0.00000000	0.00000000	-18.27990490	0.00000000	0.00000000	-91.93391558	-42.99113047	0.00000000	0.00000000
2.71000000	30.00000000	0.00000000	0.00000000	0.07004536	0.06985393	0.00000000	0.00000000	-18.22228261	0.00000000	0.00000000	-91.73133787	-43.83099179	0.00000000	0.00000000
2.71500000	30.00000000	0.00000000	0.00000000	0.06995184	0.06979056	0.00000000	0.00000000	-18.27920660	0.00000000	0.00000000	-91.61390600	-44.36140564	0.00000000	0.00000000
2.72000000	30.00000000	0.00000000	0.00000000	0.06985687	0.06972572	0.00000000	0.00000000	-18.20455968	0.00000000	0.00000000	-91.52564293	-45.16225879	0.00000000	0.00000000
2.72500000	30.00000000	0.00000000	0.00000000	0.06976209	0.06964670	0.00000000	0.00000000	-18.48617380	0.00000000	0.00000000	-91.29945248	-45.16559336	0.00000000	0.00000000
2.73000000	30.00000000	0.00000000	0.00000000	0.06967719	0.06957596	0.00000000	0.00000000	-18.46110083	0.00000000	0.00000000	-91.16782583	-45.79785264	0.00000000	0.00000000
